<mxfile host="app.diagrams.net" agent="Mozilla/5.0 (Windows NT 10.0; Win64; x64) AppleWebKit/537.36 (KHTML, like Gecko) Chrome/136.0.0.0 Safari/537.36" version="27.0.5">
  <diagram name="Page-1" id="w-qRo3EJEtVQn4XoWYoc">
    <mxGraphModel dx="1026" dy="556" grid="1" gridSize="10" guides="1" tooltips="1" connect="1" arrows="1" fold="1" page="1" pageScale="1" pageWidth="850" pageHeight="1100" math="0" shadow="0">
      <root>
        <mxCell id="0" />
        <mxCell id="1" parent="0" />
        <mxCell id="DynE5E0ALuxbDtxayFUn-94" value="" style="group" parent="1" vertex="1" connectable="0">
          <mxGeometry x="5" y="10" width="835" height="530" as="geometry" />
        </mxCell>
        <mxCell id="DynE5E0ALuxbDtxayFUn-2" value="Customer" style="rounded=1;arcSize=10;whiteSpace=wrap;html=1;align=center;fillColor=#ffe6cc;strokeColor=#d79b00;" parent="DynE5E0ALuxbDtxayFUn-94" vertex="1">
          <mxGeometry x="100" y="126.88" width="90" height="40" as="geometry" />
        </mxCell>
        <mxCell id="DynE5E0ALuxbDtxayFUn-3" value="Room" style="whiteSpace=wrap;html=1;rounded=1;arcSize=10;fillColor=#ffe6cc;strokeColor=#d79b00;" parent="DynE5E0ALuxbDtxayFUn-94" vertex="1">
          <mxGeometry x="625" y="130.01" width="100" height="33.75" as="geometry" />
        </mxCell>
        <mxCell id="DynE5E0ALuxbDtxayFUn-5" value="Customer ID" style="ellipse;whiteSpace=wrap;html=1;align=center;fillColor=#f8cecc;strokeColor=#b85450;" parent="DynE5E0ALuxbDtxayFUn-94" vertex="1">
          <mxGeometry x="5" y="30" width="100" height="40" as="geometry" />
        </mxCell>
        <mxCell id="DynE5E0ALuxbDtxayFUn-6" value="&lt;span style=&quot;border-bottom: 1px dotted&quot;&gt;Full Name&lt;/span&gt;" style="ellipse;whiteSpace=wrap;html=1;align=center;fillColor=#f8cecc;strokeColor=#b85450;" parent="DynE5E0ALuxbDtxayFUn-94" vertex="1">
          <mxGeometry x="95" width="100" height="40" as="geometry" />
        </mxCell>
        <mxCell id="DynE5E0ALuxbDtxayFUn-8" value="&lt;span style=&quot;border-bottom: 1px dotted&quot;&gt;Phone&lt;/span&gt;" style="ellipse;whiteSpace=wrap;html=1;align=center;fillColor=#f8cecc;strokeColor=#b85450;" parent="DynE5E0ALuxbDtxayFUn-94" vertex="1">
          <mxGeometry x="175" y="30" width="100" height="40" as="geometry" />
        </mxCell>
        <mxCell id="DynE5E0ALuxbDtxayFUn-10" value="" style="endArrow=none;html=1;rounded=0;entryX=0.5;entryY=0;entryDx=0;entryDy=0;exitX=0.34;exitY=1;exitDx=0;exitDy=0;exitPerimeter=0;" parent="DynE5E0ALuxbDtxayFUn-94" source="DynE5E0ALuxbDtxayFUn-8" target="DynE5E0ALuxbDtxayFUn-2" edge="1">
          <mxGeometry relative="1" as="geometry">
            <mxPoint x="215" y="90" as="sourcePoint" />
            <mxPoint x="375" y="100" as="targetPoint" />
          </mxGeometry>
        </mxCell>
        <mxCell id="DynE5E0ALuxbDtxayFUn-11" value="" style="endArrow=none;html=1;rounded=0;entryX=0.5;entryY=0;entryDx=0;entryDy=0;" parent="DynE5E0ALuxbDtxayFUn-94" target="DynE5E0ALuxbDtxayFUn-2" edge="1">
          <mxGeometry relative="1" as="geometry">
            <mxPoint x="65" y="69" as="sourcePoint" />
            <mxPoint x="185" y="69" as="targetPoint" />
          </mxGeometry>
        </mxCell>
        <mxCell id="DynE5E0ALuxbDtxayFUn-12" value="" style="endArrow=none;html=1;rounded=0;exitX=0.5;exitY=1;exitDx=0;exitDy=0;entryX=0.5;entryY=0;entryDx=0;entryDy=0;" parent="DynE5E0ALuxbDtxayFUn-94" source="DynE5E0ALuxbDtxayFUn-6" target="DynE5E0ALuxbDtxayFUn-2" edge="1">
          <mxGeometry relative="1" as="geometry">
            <mxPoint x="145" y="90" as="sourcePoint" />
            <mxPoint x="265" y="90" as="targetPoint" />
          </mxGeometry>
        </mxCell>
        <mxCell id="DynE5E0ALuxbDtxayFUn-13" value="&lt;span style=&quot;border-bottom: 1px dotted&quot;&gt;Room ID&lt;/span&gt;" style="ellipse;whiteSpace=wrap;html=1;align=center;fillColor=#f8cecc;strokeColor=#b85450;" parent="DynE5E0ALuxbDtxayFUn-94" vertex="1">
          <mxGeometry x="475" y="30" width="100" height="40" as="geometry" />
        </mxCell>
        <mxCell id="DynE5E0ALuxbDtxayFUn-15" value="&lt;span style=&quot;border-bottom: 1px dotted&quot;&gt;Check Out Date&lt;/span&gt;" style="ellipse;whiteSpace=wrap;html=1;align=center;fillColor=#f8cecc;strokeColor=#b85450;" parent="DynE5E0ALuxbDtxayFUn-94" vertex="1">
          <mxGeometry x="645" width="100" height="40" as="geometry" />
        </mxCell>
        <mxCell id="DynE5E0ALuxbDtxayFUn-17" value="&lt;span style=&quot;border-bottom: 1px dotted&quot;&gt;Status&lt;/span&gt;" style="ellipse;whiteSpace=wrap;html=1;align=center;fillColor=#f8cecc;strokeColor=#b85450;" parent="DynE5E0ALuxbDtxayFUn-94" vertex="1">
          <mxGeometry x="715" y="30" width="100" height="40" as="geometry" />
        </mxCell>
        <mxCell id="DynE5E0ALuxbDtxayFUn-21" value="&lt;span style=&quot;border-bottom: 1px dotted&quot;&gt;Check In Date&lt;/span&gt;" style="ellipse;whiteSpace=wrap;html=1;align=center;fillColor=#f8cecc;strokeColor=#b85450;" parent="DynE5E0ALuxbDtxayFUn-94" vertex="1">
          <mxGeometry x="545" width="100" height="40" as="geometry" />
        </mxCell>
        <mxCell id="DynE5E0ALuxbDtxayFUn-23" value="" style="endArrow=none;html=1;rounded=0;exitX=0.5;exitY=1;exitDx=0;exitDy=0;" parent="DynE5E0ALuxbDtxayFUn-94" edge="1">
          <mxGeometry relative="1" as="geometry">
            <mxPoint x="535" y="70" as="sourcePoint" />
            <mxPoint x="665" y="130" as="targetPoint" />
          </mxGeometry>
        </mxCell>
        <mxCell id="DynE5E0ALuxbDtxayFUn-24" value="" style="endArrow=none;html=1;rounded=0;exitX=0.61;exitY=1.05;exitDx=0;exitDy=0;exitPerimeter=0;entryX=0.4;entryY=0.059;entryDx=0;entryDy=0;entryPerimeter=0;" parent="DynE5E0ALuxbDtxayFUn-94" edge="1">
          <mxGeometry relative="1" as="geometry">
            <mxPoint x="615" y="40" as="sourcePoint" />
            <mxPoint x="674" y="130.00125000000003" as="targetPoint" />
          </mxGeometry>
        </mxCell>
        <mxCell id="DynE5E0ALuxbDtxayFUn-25" value="" style="endArrow=none;html=1;rounded=0;entryX=0.67;entryY=-0.03;entryDx=0;entryDy=0;entryPerimeter=0;exitX=0.42;exitY=0.9;exitDx=0;exitDy=0;exitPerimeter=0;" parent="DynE5E0ALuxbDtxayFUn-94" source="DynE5E0ALuxbDtxayFUn-15" edge="1">
          <mxGeometry relative="1" as="geometry">
            <mxPoint x="685" y="50" as="sourcePoint" />
            <mxPoint x="685" y="130.00749999999994" as="targetPoint" />
          </mxGeometry>
        </mxCell>
        <mxCell id="DynE5E0ALuxbDtxayFUn-26" value="" style="endArrow=none;html=1;rounded=0;entryX=0.31;entryY=1.05;entryDx=0;entryDy=0;entryPerimeter=0;" parent="DynE5E0ALuxbDtxayFUn-94" target="DynE5E0ALuxbDtxayFUn-17" edge="1">
          <mxGeometry relative="1" as="geometry">
            <mxPoint x="695" y="130" as="sourcePoint" />
            <mxPoint x="855" y="110" as="targetPoint" />
          </mxGeometry>
        </mxCell>
        <mxCell id="DynE5E0ALuxbDtxayFUn-27" value="" style="endArrow=none;html=1;rounded=0;" parent="DynE5E0ALuxbDtxayFUn-94" edge="1">
          <mxGeometry relative="1" as="geometry">
            <mxPoint x="190" y="146.38" as="sourcePoint" />
            <mxPoint x="625" y="146.8329381443299" as="targetPoint" />
          </mxGeometry>
        </mxCell>
        <mxCell id="DynE5E0ALuxbDtxayFUn-29" value="Customer" style="shape=rhombus;perimeter=rhombusPerimeter;whiteSpace=wrap;html=1;align=center;fillColor=#ffe6cc;strokeColor=#d79b00;" parent="DynE5E0ALuxbDtxayFUn-94" vertex="1">
          <mxGeometry x="360" y="170" width="120" height="50" as="geometry" />
        </mxCell>
        <mxCell id="DynE5E0ALuxbDtxayFUn-30" value="" style="endArrow=none;html=1;rounded=0;entryX=0.5;entryY=0;entryDx=0;entryDy=0;" parent="DynE5E0ALuxbDtxayFUn-94" target="DynE5E0ALuxbDtxayFUn-29" edge="1">
          <mxGeometry relative="1" as="geometry">
            <mxPoint x="420" y="150" as="sourcePoint" />
            <mxPoint x="420" y="220" as="targetPoint" />
          </mxGeometry>
        </mxCell>
        <mxCell id="DynE5E0ALuxbDtxayFUn-35" value="" style="edgeStyle=orthogonalEdgeStyle;rounded=0;orthogonalLoop=1;jettySize=auto;html=1;" parent="DynE5E0ALuxbDtxayFUn-94" source="DynE5E0ALuxbDtxayFUn-31" target="DynE5E0ALuxbDtxayFUn-34" edge="1">
          <mxGeometry relative="1" as="geometry" />
        </mxCell>
        <mxCell id="DynE5E0ALuxbDtxayFUn-53" value="" style="edgeStyle=orthogonalEdgeStyle;rounded=0;orthogonalLoop=1;jettySize=auto;html=1;" parent="DynE5E0ALuxbDtxayFUn-94" source="DynE5E0ALuxbDtxayFUn-31" target="DynE5E0ALuxbDtxayFUn-52" edge="1">
          <mxGeometry relative="1" as="geometry" />
        </mxCell>
        <mxCell id="DynE5E0ALuxbDtxayFUn-31" value="Resvervation" style="whiteSpace=wrap;html=1;rounded=1;arcSize=10;fillColor=#ffe6cc;strokeColor=#d79b00;" parent="DynE5E0ALuxbDtxayFUn-94" vertex="1">
          <mxGeometry x="365" y="240" width="110" height="40" as="geometry" />
        </mxCell>
        <mxCell id="DynE5E0ALuxbDtxayFUn-33" value="" style="endArrow=none;html=1;rounded=0;exitX=0.5;exitY=1;exitDx=0;exitDy=0;entryX=0.5;entryY=0;entryDx=0;entryDy=0;" parent="DynE5E0ALuxbDtxayFUn-94" source="DynE5E0ALuxbDtxayFUn-29" target="DynE5E0ALuxbDtxayFUn-31" edge="1">
          <mxGeometry relative="1" as="geometry">
            <mxPoint x="395" y="250" as="sourcePoint" />
            <mxPoint x="555" y="250" as="targetPoint" />
          </mxGeometry>
        </mxCell>
        <mxCell id="DynE5E0ALuxbDtxayFUn-38" value="Payment ID" style="ellipse;whiteSpace=wrap;html=1;align=center;fillColor=#f8cecc;strokeColor=#b85450;" parent="DynE5E0ALuxbDtxayFUn-94" vertex="1">
          <mxGeometry x="5" y="250" width="100" height="40" as="geometry" />
        </mxCell>
        <mxCell id="DynE5E0ALuxbDtxayFUn-40" value="Amount" style="ellipse;whiteSpace=wrap;html=1;align=center;fillColor=#f8cecc;strokeColor=#b85450;" parent="DynE5E0ALuxbDtxayFUn-94" vertex="1">
          <mxGeometry x="5" y="300" width="100" height="40" as="geometry" />
        </mxCell>
        <mxCell id="DynE5E0ALuxbDtxayFUn-42" value="Payment Date" style="ellipse;whiteSpace=wrap;html=1;align=center;fillColor=#f8cecc;strokeColor=#b85450;" parent="DynE5E0ALuxbDtxayFUn-94" vertex="1">
          <mxGeometry x="5" y="350" width="100" height="40" as="geometry" />
        </mxCell>
        <mxCell id="DynE5E0ALuxbDtxayFUn-44" value="Payment Method" style="ellipse;whiteSpace=wrap;html=1;align=center;fillColor=#f8cecc;strokeColor=#b85450;" parent="DynE5E0ALuxbDtxayFUn-94" vertex="1">
          <mxGeometry y="400" width="100" height="40" as="geometry" />
        </mxCell>
        <mxCell id="DynE5E0ALuxbDtxayFUn-46" value="" style="endArrow=none;html=1;rounded=0;entryX=0.074;entryY=0.133;entryDx=0;entryDy=0;exitX=0.92;exitY=0.675;exitDx=0;exitDy=0;exitPerimeter=0;entryPerimeter=0;" parent="DynE5E0ALuxbDtxayFUn-94" target="DynE5E0ALuxbDtxayFUn-34" edge="1">
          <mxGeometry relative="1" as="geometry">
            <mxPoint x="97" y="280" as="sourcePoint" />
            <mxPoint x="155" y="315.5" as="targetPoint" />
          </mxGeometry>
        </mxCell>
        <mxCell id="DynE5E0ALuxbDtxayFUn-47" value="" style="endArrow=none;html=1;rounded=0;exitX=1;exitY=0.75;exitDx=0;exitDy=0;exitPerimeter=0;" parent="DynE5E0ALuxbDtxayFUn-94" source="DynE5E0ALuxbDtxayFUn-34" edge="1">
          <mxGeometry relative="1" as="geometry">
            <mxPoint x="125" y="320" as="sourcePoint" />
            <mxPoint x="235" y="320" as="targetPoint" />
          </mxGeometry>
        </mxCell>
        <mxCell id="DynE5E0ALuxbDtxayFUn-52" value="Staff" style="whiteSpace=wrap;html=1;rounded=1;arcSize=10;fillColor=#ffe6cc;strokeColor=#d79b00;" parent="DynE5E0ALuxbDtxayFUn-94" vertex="1">
          <mxGeometry x="525" y="310" width="90" height="30" as="geometry" />
        </mxCell>
        <mxCell id="DynE5E0ALuxbDtxayFUn-54" value="Staff ID" style="ellipse;whiteSpace=wrap;html=1;align=center;fillColor=#f8cecc;strokeColor=#b85450;" parent="DynE5E0ALuxbDtxayFUn-94" vertex="1">
          <mxGeometry x="405" y="490" width="90" height="40" as="geometry" />
        </mxCell>
        <mxCell id="DynE5E0ALuxbDtxayFUn-56" value="Full Name" style="ellipse;whiteSpace=wrap;html=1;align=center;fillColor=#f8cecc;strokeColor=#b85450;" parent="DynE5E0ALuxbDtxayFUn-94" vertex="1">
          <mxGeometry x="495" y="490" width="90" height="40" as="geometry" />
        </mxCell>
        <mxCell id="DynE5E0ALuxbDtxayFUn-58" value="Position" style="ellipse;whiteSpace=wrap;html=1;align=center;fillColor=#f8cecc;strokeColor=#b85450;" parent="DynE5E0ALuxbDtxayFUn-94" vertex="1">
          <mxGeometry x="585" y="490" width="90" height="40" as="geometry" />
        </mxCell>
        <mxCell id="DynE5E0ALuxbDtxayFUn-60" value="Reservation ID" style="ellipse;whiteSpace=wrap;html=1;align=center;fillColor=#f8cecc;strokeColor=#b85450;" parent="DynE5E0ALuxbDtxayFUn-94" vertex="1">
          <mxGeometry x="195" y="340" width="100" height="40" as="geometry" />
        </mxCell>
        <mxCell id="DynE5E0ALuxbDtxayFUn-62" value="Check In Date" style="ellipse;whiteSpace=wrap;html=1;align=center;fillColor=#f8cecc;strokeColor=#b85450;" parent="DynE5E0ALuxbDtxayFUn-94" vertex="1">
          <mxGeometry x="295" y="340" width="100" height="40" as="geometry" />
        </mxCell>
        <mxCell id="DynE5E0ALuxbDtxayFUn-64" value="Check Out Date" style="ellipse;whiteSpace=wrap;html=1;align=center;fillColor=#f8cecc;strokeColor=#b85450;" parent="DynE5E0ALuxbDtxayFUn-94" vertex="1">
          <mxGeometry x="395" y="340" width="100" height="40" as="geometry" />
        </mxCell>
        <mxCell id="DynE5E0ALuxbDtxayFUn-34" value="Payment" style="whiteSpace=wrap;html=1;rounded=1;arcSize=10;fillColor=#ffe6cc;strokeColor=#d79b00;" parent="DynE5E0ALuxbDtxayFUn-94" vertex="1">
          <mxGeometry x="155" y="305" width="95" height="30" as="geometry" />
        </mxCell>
        <mxCell id="DynE5E0ALuxbDtxayFUn-67" value="" style="endArrow=none;html=1;rounded=0;exitX=1;exitY=0.5;exitDx=0;exitDy=0;entryX=0;entryY=0.5;entryDx=0;entryDy=0;" parent="DynE5E0ALuxbDtxayFUn-94" source="DynE5E0ALuxbDtxayFUn-40" target="DynE5E0ALuxbDtxayFUn-34" edge="1">
          <mxGeometry relative="1" as="geometry">
            <mxPoint x="100" y="335" as="sourcePoint" />
            <mxPoint x="155" y="340" as="targetPoint" />
          </mxGeometry>
        </mxCell>
        <mxCell id="DynE5E0ALuxbDtxayFUn-68" value="" style="endArrow=none;html=1;rounded=0;entryX=0.074;entryY=0.967;entryDx=0;entryDy=0;entryPerimeter=0;" parent="DynE5E0ALuxbDtxayFUn-94" edge="1">
          <mxGeometry relative="1" as="geometry">
            <mxPoint x="105" y="370" as="sourcePoint" />
            <mxPoint x="162.02999999999997" y="335.01" as="targetPoint" />
          </mxGeometry>
        </mxCell>
        <mxCell id="DynE5E0ALuxbDtxayFUn-69" value="" style="endArrow=none;html=1;rounded=0;exitX=1;exitY=0.5;exitDx=0;exitDy=0;entryX=0.25;entryY=1;entryDx=0;entryDy=0;" parent="DynE5E0ALuxbDtxayFUn-94" source="DynE5E0ALuxbDtxayFUn-44" target="DynE5E0ALuxbDtxayFUn-34" edge="1">
          <mxGeometry relative="1" as="geometry">
            <mxPoint x="95" y="430" as="sourcePoint" />
            <mxPoint x="165" y="350" as="targetPoint" />
          </mxGeometry>
        </mxCell>
        <mxCell id="DynE5E0ALuxbDtxayFUn-71" value="" style="endArrow=none;html=1;rounded=0;entryX=0.155;entryY=1;entryDx=0;entryDy=0;entryPerimeter=0;exitX=0.5;exitY=0;exitDx=0;exitDy=0;" parent="DynE5E0ALuxbDtxayFUn-94" source="DynE5E0ALuxbDtxayFUn-60" target="DynE5E0ALuxbDtxayFUn-31" edge="1">
          <mxGeometry relative="1" as="geometry">
            <mxPoint x="235" y="350" as="sourcePoint" />
            <mxPoint x="395" y="350" as="targetPoint" />
          </mxGeometry>
        </mxCell>
        <mxCell id="DynE5E0ALuxbDtxayFUn-72" value="" style="endArrow=none;html=1;rounded=0;exitX=0.25;exitY=1;exitDx=0;exitDy=0;" parent="DynE5E0ALuxbDtxayFUn-94" edge="1">
          <mxGeometry relative="1" as="geometry">
            <mxPoint x="403.75" y="280" as="sourcePoint" />
            <mxPoint x="365" y="340" as="targetPoint" />
          </mxGeometry>
        </mxCell>
        <mxCell id="DynE5E0ALuxbDtxayFUn-73" value="" style="endArrow=none;html=1;rounded=0;entryX=0.5;entryY=0;entryDx=0;entryDy=0;exitX=0.5;exitY=1;exitDx=0;exitDy=0;" parent="DynE5E0ALuxbDtxayFUn-94" source="DynE5E0ALuxbDtxayFUn-31" target="DynE5E0ALuxbDtxayFUn-64" edge="1">
          <mxGeometry relative="1" as="geometry">
            <mxPoint x="405" y="305" as="sourcePoint" />
            <mxPoint x="565" y="305" as="targetPoint" />
          </mxGeometry>
        </mxCell>
        <mxCell id="DynE5E0ALuxbDtxayFUn-74" value="" style="endArrow=none;html=1;rounded=0;exitX=0.633;exitY=-0.05;exitDx=0;exitDy=0;exitPerimeter=0;entryX=0.222;entryY=1;entryDx=0;entryDy=0;entryPerimeter=0;" parent="DynE5E0ALuxbDtxayFUn-94" source="DynE5E0ALuxbDtxayFUn-54" target="DynE5E0ALuxbDtxayFUn-52" edge="1">
          <mxGeometry relative="1" as="geometry">
            <mxPoint x="455" y="390" as="sourcePoint" />
            <mxPoint x="615" y="390" as="targetPoint" />
          </mxGeometry>
        </mxCell>
        <mxCell id="DynE5E0ALuxbDtxayFUn-75" value="" style="endArrow=none;html=1;rounded=0;entryX=0.5;entryY=0;entryDx=0;entryDy=0;exitX=0.422;exitY=1;exitDx=0;exitDy=0;exitPerimeter=0;" parent="DynE5E0ALuxbDtxayFUn-94" source="DynE5E0ALuxbDtxayFUn-52" target="DynE5E0ALuxbDtxayFUn-58" edge="1">
          <mxGeometry relative="1" as="geometry">
            <mxPoint x="577.96" y="330" as="sourcePoint" />
            <mxPoint x="474.99999999999994" y="510" as="targetPoint" />
          </mxGeometry>
        </mxCell>
        <mxCell id="DynE5E0ALuxbDtxayFUn-76" value="" style="endArrow=none;html=1;rounded=0;exitX=0.6;exitY=-0.05;exitDx=0;exitDy=0;exitPerimeter=0;entryX=0.367;entryY=1.033;entryDx=0;entryDy=0;entryPerimeter=0;" parent="DynE5E0ALuxbDtxayFUn-94" source="DynE5E0ALuxbDtxayFUn-56" target="DynE5E0ALuxbDtxayFUn-52" edge="1">
          <mxGeometry relative="1" as="geometry">
            <mxPoint x="545" y="379" as="sourcePoint" />
            <mxPoint x="705" y="379" as="targetPoint" />
          </mxGeometry>
        </mxCell>
        <mxCell id="DynE5E0ALuxbDtxayFUn-77" value="Hire Date" style="ellipse;whiteSpace=wrap;html=1;align=center;fillColor=#f8cecc;strokeColor=#b85450;" parent="DynE5E0ALuxbDtxayFUn-94" vertex="1">
          <mxGeometry x="675" y="490" width="90" height="40" as="geometry" />
        </mxCell>
        <mxCell id="DynE5E0ALuxbDtxayFUn-79" value="" style="endArrow=none;html=1;rounded=0;entryX=0.5;entryY=0;entryDx=0;entryDy=0;exitX=0.556;exitY=1;exitDx=0;exitDy=0;exitPerimeter=0;" parent="DynE5E0ALuxbDtxayFUn-94" source="DynE5E0ALuxbDtxayFUn-52" target="DynE5E0ALuxbDtxayFUn-77" edge="1">
          <mxGeometry relative="1" as="geometry">
            <mxPoint x="595" y="400" as="sourcePoint" />
            <mxPoint x="755" y="400" as="targetPoint" />
          </mxGeometry>
        </mxCell>
        <mxCell id="DynE5E0ALuxbDtxayFUn-80" value="Extra Service" style="whiteSpace=wrap;html=1;rounded=1;arcSize=10;fillColor=#ffe6cc;strokeColor=#d79b00;" parent="DynE5E0ALuxbDtxayFUn-94" vertex="1">
          <mxGeometry x="570" y="200" width="105" height="40" as="geometry" />
        </mxCell>
        <mxCell id="DynE5E0ALuxbDtxayFUn-82" value="" style="endArrow=none;html=1;rounded=0;entryX=0;entryY=0.5;entryDx=0;entryDy=0;" parent="DynE5E0ALuxbDtxayFUn-94" target="DynE5E0ALuxbDtxayFUn-80" edge="1">
          <mxGeometry relative="1" as="geometry">
            <mxPoint x="420" y="220" as="sourcePoint" />
            <mxPoint x="645" y="240" as="targetPoint" />
          </mxGeometry>
        </mxCell>
        <mxCell id="DynE5E0ALuxbDtxayFUn-83" value="Service ID" style="ellipse;whiteSpace=wrap;html=1;align=center;fontStyle=4;fillColor=#f8cecc;strokeColor=#b85450;" parent="DynE5E0ALuxbDtxayFUn-94" vertex="1">
          <mxGeometry x="735" y="210" width="100" height="40" as="geometry" />
        </mxCell>
        <mxCell id="DynE5E0ALuxbDtxayFUn-84" value="Service Name" style="ellipse;whiteSpace=wrap;html=1;align=center;fontStyle=4;fillColor=#f8cecc;strokeColor=#b85450;" parent="DynE5E0ALuxbDtxayFUn-94" vertex="1">
          <mxGeometry x="735" y="260" width="100" height="40" as="geometry" />
        </mxCell>
        <mxCell id="DynE5E0ALuxbDtxayFUn-86" value="Description" style="ellipse;whiteSpace=wrap;html=1;align=center;fontStyle=4;fillColor=#f8cecc;strokeColor=#b85450;" parent="DynE5E0ALuxbDtxayFUn-94" vertex="1">
          <mxGeometry x="735" y="310" width="100" height="40" as="geometry" />
        </mxCell>
        <mxCell id="DynE5E0ALuxbDtxayFUn-88" value="price" style="ellipse;whiteSpace=wrap;html=1;align=center;fontStyle=4;fillColor=#f8cecc;strokeColor=#b85450;" parent="DynE5E0ALuxbDtxayFUn-94" vertex="1">
          <mxGeometry x="735" y="360" width="100" height="40" as="geometry" />
        </mxCell>
        <mxCell id="DynE5E0ALuxbDtxayFUn-90" value="" style="endArrow=none;html=1;rounded=0;exitX=0.5;exitY=1;exitDx=0;exitDy=0;entryX=0;entryY=0.5;entryDx=0;entryDy=0;" parent="DynE5E0ALuxbDtxayFUn-94" source="DynE5E0ALuxbDtxayFUn-80" target="DynE5E0ALuxbDtxayFUn-88" edge="1">
          <mxGeometry relative="1" as="geometry">
            <mxPoint x="635" y="360" as="sourcePoint" />
            <mxPoint x="795" y="360" as="targetPoint" />
          </mxGeometry>
        </mxCell>
        <mxCell id="DynE5E0ALuxbDtxayFUn-91" value="" style="endArrow=none;html=1;rounded=0;entryX=0;entryY=0.5;entryDx=0;entryDy=0;exitX=0.75;exitY=1;exitDx=0;exitDy=0;" parent="DynE5E0ALuxbDtxayFUn-94" source="DynE5E0ALuxbDtxayFUn-80" target="DynE5E0ALuxbDtxayFUn-86" edge="1">
          <mxGeometry relative="1" as="geometry">
            <mxPoint x="655" y="250" as="sourcePoint" />
            <mxPoint x="755" y="300" as="targetPoint" />
          </mxGeometry>
        </mxCell>
        <mxCell id="DynE5E0ALuxbDtxayFUn-92" value="" style="endArrow=none;html=1;rounded=0;exitX=1;exitY=0.75;exitDx=0;exitDy=0;" parent="DynE5E0ALuxbDtxayFUn-94" edge="1">
          <mxGeometry relative="1" as="geometry">
            <mxPoint x="665" y="240" as="sourcePoint" />
            <mxPoint x="735" y="280" as="targetPoint" />
          </mxGeometry>
        </mxCell>
        <mxCell id="DynE5E0ALuxbDtxayFUn-93" value="" style="endArrow=none;html=1;rounded=0;exitX=1;exitY=0.5;exitDx=0;exitDy=0;entryX=0;entryY=0.5;entryDx=0;entryDy=0;" parent="DynE5E0ALuxbDtxayFUn-94" source="DynE5E0ALuxbDtxayFUn-80" target="DynE5E0ALuxbDtxayFUn-83" edge="1">
          <mxGeometry relative="1" as="geometry">
            <mxPoint x="585" y="259" as="sourcePoint" />
            <mxPoint x="745" y="259" as="targetPoint" />
          </mxGeometry>
        </mxCell>
      </root>
    </mxGraphModel>
  </diagram>
</mxfile>
